<?xml version="1.0" encoding="utf-8"?>
<!-- Generator: Adobe Illustrator 18.0.0, SVG Export Plug-In . SVG Version: 6.00 Build 0)  -->
<!DOCTYPE svg PUBLIC "-//W3C//DTD SVG 1.1//EN" "http://www.w3.org/Graphics/SVG/1.1/DTD/svg11.dtd">
<svg version="1.1" id="Calque_1" xmlns="http://www.w3.org/2000/svg" xmlns:xlink="http://www.w3.org/1999/xlink" x="0px" y="0px"
	 viewBox="0 0 50 50" enable-background="new 0 0 50 50" xml:space="preserve">
<g enable-background="new    ">
	<path fill="#026660" d="M6.4,17.6c2.9-3.6,6.1-6.1,9.6-7.8l1.1,2.4c-2.8,1.6-5.2,3.6-7.2,6c-2,2.4-3,4.8-3,7.3
		c0,0.5,0.2,0.9,0.5,1.1c0.3,0.2,0.7,0.4,1.2,0.4c2.6-0.3,4-0.4,4.2-0.4c1.3,0,2.8,0.5,4.3,1.5c1.6,1,2.3,2.6,2.3,5
		c0,2-0.6,3.6-1.9,5c-1.3,1.4-3.1,2.1-5.5,2.1c-2.8,0-5.1-1.1-7.1-3.2c-1.9-2.2-2.9-4.9-2.9-8.2C2.1,24.9,3.5,21.2,6.4,17.6z
		 M34.9,17.5c2.9-3.5,6.1-6,9.6-7.6l1.1,2.4c-2.8,1.6-5.2,3.6-7.2,6c-2,2.4-3,4.8-3,7.3c0,0.4,0.1,0.8,0.4,1.1
		c0.2,0.3,0.7,0.5,1.3,0.5c2.6-0.3,4-0.4,4.2-0.4c1.5,0,3,0.5,4.4,1.6c1.5,1.1,2.2,2.7,2.2,4.7c0,1.7-0.6,3.3-1.7,4.8
		c-1.1,1.6-3.1,2.3-5.8,2.3c-2.9,0-5.3-1.1-7.1-3.4c-1.9-2.2-2.8-4.8-2.8-7.6C30.5,24.9,32,21,34.9,17.5z"/>
</g>
</svg>
