<?xml version="1.0" encoding="utf-8"?>
<!-- Generator: Adobe Illustrator 18.0.0, SVG Export Plug-In . SVG Version: 6.00 Build 0)  -->
<!DOCTYPE svg PUBLIC "-//W3C//DTD SVG 1.1//EN" "http://www.w3.org/Graphics/SVG/1.1/DTD/svg11.dtd">
<svg version="1.1" id="Calque_1" xmlns="http://www.w3.org/2000/svg" xmlns:xlink="http://www.w3.org/1999/xlink" x="0px" y="0px"
	 viewBox="0 0 141.7 141.7" enable-background="new 0 0 141.7 141.7" xml:space="preserve">
<g enable-background="new    ">
	<path fill="#333333" d="M18.1,49.9c8.2-10.2,17.3-17.3,27.2-22.1l3.1,6.8c-7.9,4.5-14.7,10.2-20.4,17s-8.5,13.6-8.5,20.7
		c0,1.4,0.6,2.6,1.4,3.1c0.9,0.6,2,1.1,3.4,1.1c7.4-0.9,11.3-1.1,11.9-1.1c3.7,0,7.9,1.4,12.2,4.3C53,82.5,55,87,55,93.8
		c0,5.7-1.7,10.2-5.4,14.2s-8.8,6-15.6,6c-7.9,0-14.5-3.1-20.1-9.1C8.5,98.6,5.7,91,5.7,81.6C6,70.6,9.9,60.1,18.1,49.9z M98.9,49.6
		c8.2-9.9,17.3-17,27.2-21.5l3.1,6.8c-7.9,4.5-14.7,10.2-20.4,17s-8.5,13.6-8.5,20.7c0,1.1,0.3,2.3,1.1,3.1c0.6,0.9,2,1.4,3.7,1.4
		c7.4-0.9,11.3-1.1,11.9-1.1c4.3,0,8.5,1.4,12.5,4.5c4.3,3.1,6.2,7.7,6.2,13.3c0,4.8-1.7,9.4-4.8,13.6c-3.1,4.5-8.8,6.5-16.4,6.5
		c-8.2,0-15-3.1-20.1-9.6c-5.4-6.2-7.9-13.6-7.9-21.5C86.5,70.6,90.7,59.5,98.9,49.6z"/>
</g>
</svg>
