<?xml version="1.0" encoding="utf-8"?>
<!-- Generator: Adobe Illustrator 18.0.0, SVG Export Plug-In . SVG Version: 6.00 Build 0)  -->
<!DOCTYPE svg PUBLIC "-//W3C//DTD SVG 1.1//EN" "http://www.w3.org/Graphics/SVG/1.1/DTD/svg11.dtd">
<svg version="1.1" id="Layer_1" xmlns="http://www.w3.org/2000/svg" xmlns:xlink="http://www.w3.org/1999/xlink" x="0px" y="0px"
	 viewBox="2 5 22 21" enable-background="new 2 5 22 21" xml:space="preserve">
<path fill="#C0392B" d="M23,5H3C2.4,5,2,5.4,2,6v2c0,0.6,0.4,1,1,1h0.2l2.3,13.8c0.4,2,1.7,3.2,3.4,3.2h8.1c1.7,0,3.1-1.3,3.4-3.3
	L22.8,9H23c0.6,0,1-0.4,1-1V6C24,5.4,23.6,5,23,5z M18.1,9.5L17.6,9h0.9L18.1,9.5z M11.5,24L11,23.4l2-2l2,2L14.4,24H11.5z M7.4,9
	h0.9L7.8,9.5L7.4,9z M17.4,10.2l-1.7,1.7l-2-2L14.6,9h1.7L17.4,10.2z M9.7,9h1.7l0.9,0.9l-2,2l-1.7-1.7L9.7,9z M13,9.2L12.8,9h0.4
	L13,9.2z M13,10.6l2,2l-2,2l-2-2L13,10.6z M12.2,15.3l-2,2l-2-2l2-2L12.2,15.3z M13,16l2,2l-2,2l-2-2L13,16z M13.7,15.3l2-2l2,2
	l-2,2L13.7,15.3z M9.5,12.6l-2,2L5.9,13l0-0.2l1.9-1.9L9.5,12.6z M6.2,14.7l0.6,0.6l-0.5,0.5L6.2,14.7z M7,19.5L6.6,17l1-1l2,2l-2,2
	L7,19.5z M10.2,18.7l2,2l-2,2l-2-2L10.2,18.7z M13.7,20.7l2-2l2,2l-2,2L13.7,20.7z M16.4,18l2-2l1,1L19,19.4L18.4,20L16.4,18z
	 M19.1,15.3l0.7-0.7l-0.2,1.3L19.1,15.3z M18.4,14.6l-2-2l1.7-1.7l2,2L18.4,14.6z M5.9,9l1.2,1.2l-1.4,1.4L5.2,9H5.9z M7.5,22.4
	l-0.1-0.8l0.2-0.2l2,2L9,24h0C7.9,24,7.6,22.7,7.5,22.4z M18.5,22.4c0,0.3-0.4,1.6-1.5,1.6h-0.1l-0.6-0.6l2-2l0.3,0.3L18.5,22.4z
	 M20.3,11.7l-1.5-1.5L20,9h0.8L20.3,11.7z"/>
</svg>
