<?xml version="1.0" encoding="utf-8"?>
<!-- Generator: Adobe Illustrator 18.0.0, SVG Export Plug-In . SVG Version: 6.00 Build 0)  -->
<!DOCTYPE svg PUBLIC "-//W3C//DTD SVG 1.1//EN" "http://www.w3.org/Graphics/SVG/1.1/DTD/svg11.dtd">
<svg version="1.1" id="Calque_1" xmlns="http://www.w3.org/2000/svg" xmlns:xlink="http://www.w3.org/1999/xlink" x="0px" y="0px"
	 viewBox="0 0 200 200" enable-background="new 0 0 200 200" xml:space="preserve">
<g>
	<path d="M151.4,68.3c-2.9-3.8-6.6-6.7-11.4-8.8c-4.7-2.1-10.6-3.1-17.5-3.1c-2.1,0-4,0-5.6,0.1c-1.7,0.1-3.3,0.2-4.9,0.2v84.9
		c1.4,0.2,3,0.3,4.9,0.4c1.9,0.1,3.9,0.1,6.1,0.1c2.8,0,5.6-0.1,8.4-0.4c2.8-0.3,5.4-0.9,7.9-1.9c2.5-0.9,4.9-2.3,7.1-4.1
		c2.2-1.8,4.2-4.1,5.9-7c2.6-4.5,4.5-9,5.5-13.7c1-4.7,1.6-9.8,1.6-15.3c0-6.5-0.6-12.5-1.9-17.8C156.3,76.6,154.3,72,151.4,68.3z"
		/>
	<path d="M100,2.3C46,2.3,2.3,46,2.3,100S46,197.7,100,197.7c54,0,97.7-43.7,97.7-97.7S154,2.3,100,2.3z M79.2,56.8H65.4v63.9
		c0,3.4-0.4,6.6-1.1,9.6c-0.7,3-1.9,5.6-3.5,7.8c-1.6,2.2-3.7,4-6.4,5.3c-2.6,1.3-5.9,1.9-9.7,1.9c-2.6,0-5.1-0.3-7.3-0.9
		c-2.2-0.6-4.2-1.5-5.8-2.7c-1.7-1.2-3-2.6-3.9-4.3c-1-1.7-1.4-3.5-1.4-5.6c0-2.5,0.7-4.5,2.1-6c1.4-1.5,3.5-2.3,6.2-2.3
		c1.2,0,2.3,0.2,3.1,0.6c0.8,0.4,1.5,0.9,1.9,1.4c0.5,0.5,0.8,1.1,1,1.8c0.2,0.7,0.3,1.2,0.3,1.7c0,0.9-0.1,1.7-0.4,2.4
		c-0.2,0.7-0.5,1.3-0.7,2c-0.2,0.7-0.5,1.4-0.7,2.1c-0.2,0.7-0.4,1.7-0.4,2.9c0,1.9,0.6,3.2,1.7,4s2.6,1.2,4.5,1.2
		c2.4,0,4.3-0.9,5.8-2.7c1.5-1.8,2.2-4.9,2.2-9.4V56.8H39.2v-1.7h40V56.8z M166.2,125.5c-2.3,3.4-5,6.3-8.1,8.7
		c-3.1,2.4-6.4,4.4-10,5.9c-2,0.9-3.9,1.6-5.6,2.1c-1.8,0.5-3.6,0.9-5.5,1.1c-1.9,0.2-3.9,0.4-6.1,0.5c-2.2,0.1-4.8,0.1-7.7,0.1
		c-1.2,0-2.6,0-4-0.1c-1.4,0-2.8-0.1-4.2-0.2c-1.4-0.1-2.8-0.1-4.2-0.2c-1.4,0-2.7-0.1-3.9-0.1H85.8v-1.7h13.8V56.8H85.8v-1.7h23.1
		c1.2,0,2.3,0,3.5-0.1c1.2,0,2.3-0.1,3.5-0.2c1.2,0,2.3,0,3.5-0.1c1.2,0,2.3-0.1,3.5-0.1c2.5,0,4.7,0,6.6,0.1
		c1.9,0.1,3.8,0.2,5.5,0.4c1.7,0.2,3.3,0.5,4.8,0.9c1.5,0.4,3.2,0.8,4.9,1.4c5,1.7,9.4,3.9,13.1,6.6c3.7,2.8,6.7,6,9.1,9.6
		c2.4,3.6,4.1,7.6,5.2,11.9c1.1,4.3,1.7,8.8,1.7,13.5c0,5.5-0.7,10.4-2,14.7C170.4,118.3,168.6,122.2,166.2,125.5z"/>
</g>
</svg>
