<?xml version="1.0" encoding="utf-8"?>
<!-- Generator: Adobe Illustrator 18.0.0, SVG Export Plug-In . SVG Version: 6.00 Build 0)  -->
<!DOCTYPE svg PUBLIC "-//W3C//DTD SVG 1.1//EN" "http://www.w3.org/Graphics/SVG/1.1/DTD/svg11.dtd">
<svg version="1.1" id="Calque_1" xmlns="http://www.w3.org/2000/svg" xmlns:xlink="http://www.w3.org/1999/xlink" x="0px" y="0px"
	 viewBox="0 0 141.7 141.7" enable-background="new 0 0 141.7 141.7" xml:space="preserve">
<path d="M35.3,12.9C45.6,6.6,57.8,2.9,70.9,2.9c13.1,0,25.2,3.7,35.6,10.1c-2.2,1.4-3.6,4.9-6,12.7L73,118.8c-0.5,2-1.1,3.8-2,3.8
	c-0.8,0-1.6-1.8-2.3-3.8L41.2,25.7C38.8,17.8,37.5,14.4,35.3,12.9z M120.2,24.1l10.7,78.7c5.1-9.5,8-20.4,8-31.9
	C138.9,52.7,131.8,36.3,120.2,24.1z M111,18.5c-1.5,0-2.1,1.8-2.9,4.7l-27.5,94c-3.3,10.8-4.1,12.6-9.7,12.6
	c-5.6,0-6.4-1.8-9.7-12.6l-27.5-94c-0.8-2.9-1.5-4.7-2.9-4.7c-1.3,0-1.8,1.8-2.3,4.7l-12,88.5c12.4,16.5,32.1,27.2,54.4,27.2
	s42-10.7,54.4-27.2l-12-88.5C112.8,20.3,112.3,18.5,111,18.5z M2.9,70.9c0,11.5,2.9,22.4,8,31.9l10.7-78.7
	C10,36.3,2.9,52.7,2.9,70.9z"/>
</svg>
