<?xml version="1.0" encoding="utf-8"?>
<!-- Generator: Adobe Illustrator 18.0.0, SVG Export Plug-In . SVG Version: 6.00 Build 0)  -->
<!DOCTYPE svg PUBLIC "-//W3C//DTD SVG 1.1//EN" "http://www.w3.org/Graphics/SVG/1.1/DTD/svg11.dtd">
<svg version="1.1" id="Calque_1" xmlns="http://www.w3.org/2000/svg"  x="0px" y="0px"
	 viewBox="0 0 141.7 141.7" enable-background="new 0 0 141.7 141.7" xml:space="preserve">
<g>
	<path opacity="0.81" fill="#02B3A7" d="M93.2,43.7l-16-40.1c0,0-18.4,35.9-10.3,77c8.1,41.2,39,56.4,51.1,57.5
		C81.7,122.4,74.5,80.2,93.2,43.7z"/>
	<polygon opacity="0.81" fill="#02B3A7" points="118,138.1 118,138.1 28.3,128 57.4,136.3 	"/>
	<path opacity="0.81" fill="#02B3A7" d="M118,138.1l-30-11.5l-64.3-16.7c0,0,12,15.1,33.2,22.8L118,138.1z"/>
	<path opacity="0.81" fill="#02B3A7" d="M118,138.1l-25.4-13.6L28.8,91.8c13.7,29.6,72.6,42.2,72.6,42.2L118,138.1z"/>
	<path opacity="0.81" fill="#02B3A7" d="M92.7,121.5L32.5,68.6c10.3,36.2,54.4,60.1,54.4,60.1l23.8,7.5L92.7,121.5z"/>
	<path opacity="0.81" fill="#02B3A7" d="M40.4,42.1l47.2,65.8c0,0,8.8,22.9,30.4,30.3l-30.5-12.6C87.5,125.5,36.4,61.1,40.4,42.1z"
		/>
	<path opacity="0.81" fill="#02B3A7" d="M84.1,70.8L55.9,16c0,0-12,72.4,27.4,100.7l11.2,3.2C94.5,119.9,79.4,101.9,84.1,70.8z"/>
</g>
</svg>
